MatrixSans-Regular.ufo
<glyph name="OE" format="2">
  <advance width="600"/>
  <unicode hex="0152"/>
  <outline>
    <contour>
      <point x="550.0" y="0.0" type="line"/>
      <point x="150.0" y="0.0" type="line"/>
      <point x="150.0" y="100.0" type="line"/>
      <point x="50.0" y="100.0" type="line"/>
      <point x="50.0" y="600.0" type="line"/>
      <point x="150.0" y="600.0" type="line"/>
      <point x="150.0" y="700.0" type="line"/>
      <point x="550.0" y="700.0" type="line"/>
      <point x="550.0" y="600.0" type="line"/>
      <point x="350.0" y="600.0" type="line"/>
      <point x="350.0" y="400.0" type="line"/>
      <point x="550.0" y="400.0" type="line"/>
      <point x="550.0" y="300.0" type="line"/>
      <point x="350.0" y="300.0" type="line"/>
      <point x="350.0" y="100.0" type="line"/>
      <point x="550.0" y="100.0" type="line"/>
    </contour>
    <contour>
      <point x="250.0" y="100.0" type="line"/>
      <point x="250.0" y="600.0" type="line"/>
      <point x="150.0" y="600.0" type="line"/>
      <point x="150.0" y="100.0" type="line"/>
    </contour>
  </outline>
</glyph>
<glyph name="longs" format="2">
  <advance width="500"/>
  <unicode hex="017F"/>
  <outline>
    <contour>
      <point x="50.0" y="0.0" type="line"/>
      <point x="50.0" y="600.0" type="line"/>
      <point x="150.0" y="600.0" type="line"/>
      <point x="150.0" y="700.0" type="line"/>
      <point x="350.0" y="700.0" type="line"/>
      <point x="350.0" y="600.0" type="line"/>
      <point x="450.0" y="600.0" type="line"/>
      <point x="450.0" y="500.0" type="line"/>
      <point x="350.0" y="500.0" type="line"/>
      <point x="350.0" y="600.0" type="line"/>
      <point x="150.0" y="600.0" type="line"/>
      <point x="150.0" y="0.0" type="line"/>
    </contour>
  </outline>
</glyph>
<glyph name="uni021A" format="2">
  <advance width="600"/>
  <unicode hex="021A"/>
  <outline>
    <contour>
      <point x="150.0" y="-200.0" type="line"/>
      <point x="150.0" y="-100.0" type="line"/>
      <point x="250.0" y="-100.0" type="line"/>
      <point x="250.0" y="600.0" type="line"/>
      <point x="50.0" y="600.0" type="line"/>
      <point x="50.0" y="700.0" type="line"/>
      <point x="550.0" y="700.0" type="line"/>
      <point x="550.0" y="600.0" type="line"/>
      <point x="350.0" y="600.0" type="line"/>
      <point x="350.0" y="-100.0" type="line"/>
      <point x="250.0" y="-100.0" type="line"/>
      <point x="250.0" y="-200.0" type="line"/>
    </contour>
  </outline>
</glyph>
<glyph name="uni02C8" format="2">
  <advance width="200"/>
  <unicode hex="02C8"/>
  <outline>
    <contour>
      <point x="50.0" y="500.0" type="line"/>
      <point x="50.0" y="700.0" type="line"/>
      <point x="150.0" y="700.0" type="line"/>
      <point x="150.0" y="500.0" type="line"/>
    </contour>
  </outline>
</glyph>
<glyph name="eta" format="2">
  <advance width="600"/>
  <unicode hex="03B7"/>
  <outline>
    <contour>
      <point x="50.0" y="400.0" type="line"/>
      <point x="50.0" y="500.0" type="line"/>
      <point x="150.0" y="500.0" type="line"/>
      <point x="150.0" y="400.0" type="line"/>
      <point x="250.0" y="400.0" type="line"/>
      <point x="250.0" y="500.0" type="line"/>
      <point x="450.0" y="500.0" type="line"/>
      <point x="450.0" y="400.0" type="line"/>
      <point x="550.0" y="400.0" type="line"/>
      <point x="550.0" y="-200.0" type="line"/>
      <point x="450.0" y="-200.0" type="line"/>
      <point x="450.0" y="400.0" type="line"/>
      <point x="250.0" y="400.0" type="line"/>
      <point x="250.0" y="0.0" type="line"/>
      <point x="150.0" y="0.0" type="line"/>
      <point x="150.0" y="400.0" type="line"/>
    </contour>
  </outline>
</glyph>
<glyph name="psi" format="2">
  <advance width="600"/>
  <unicode hex="03C8"/>
  <outline>
    <contour>
      <point x="250.0" y="-200.0" type="line"/>
      <point x="250.0" y="0.0" type="line"/>
      <point x="150.0" y="0.0" type="line"/>
      <point x="150.0" y="100.0" type="line"/>
      <point x="50.0" y="100.0" type="line"/>
      <point x="50.0" y="500.0" type="line"/>
      <point x="150.0" y="500.0" type="line"/>
      <point x="150.0" y="100.0" type="line"/>
      <point x="250.0" y="100.0" type="line"/>
      <point x="250.0" y="600.0" type="line"/>
      <point x="350.0" y="600.0" type="line"/>
      <point x="350.0" y="100.0" type="line"/>
      <point x="450.0" y="100.0" type="line"/>
      <point x="450.0" y="500.0" type="line"/>
      <point x="550.0" y="500.0" type="line"/>
      <point x="550.0" y="100.0" type="line"/>
      <point x="450.0" y="100.0" type="line"/>
      <point x="450.0" y="0.0" type="line"/>
      <point x="350.0" y="0.0" type="line"/>
      <point x="350.0" y="-200.0" type="line"/>
    </contour>
  </outline>
</glyph>
<glyph name="nje-cy" format="2">
  <advance width="800"/>
  <unicode hex="045A"/>
  <outline>
    <contour>
      <point x="650.0" y="0.0" type="line"/>
      <point x="350.0" y="0.0" type="line"/>
      <point x="350.0" y="200.0" type="line"/>
      <point x="150.0" y="200.0" type="line"/>
      <point x="150.0" y="0.0" type="line"/>
      <point x="50.0" y="0.0" type="line"/>
      <point x="50.0" y="500.0" type="line"/>
      <point x="150.0" y="500.0" type="line"/>
      <point x="150.0" y="300.0" type="line"/>
      <point x="350.0" y="300.0" type="line"/>
      <point x="350.0" y="500.0" type="line"/>
      <point x="450.0" y="500.0" type="line"/>
      <point x="450.0" y="300.0" type="line"/>
      <point x="650.0" y="300.0" type="line"/>
      <point x="650.0" y="200.0" type="line"/>
      <point x="750.0" y="200.0" type="line"/>
      <point x="750.0" y="100.0" type="line"/>
      <point x="650.0" y="100.0" type="line"/>
    </contour>
    <contour>
      <point x="450.0" y="100.0" type="line"/>
      <point x="650.0" y="100.0" type="line"/>
      <point x="650.0" y="200.0" type="line"/>
      <point x="450.0" y="200.0" type="line"/>
    </contour>
  </outline>
</glyph>
<glyph name="Vo-ar" format="2">
  <advance width="600"/>
  <unicode hex="0548"/>
  <outline>
    <contour>
      <point x="450.0" y="0.0" type="line"/>
      <point x="450.0" y="600.0" type="line"/>
      <point x="150.0" y="600.0" type="line"/>
      <point x="150.0" y="0.0" type="line"/>
      <point x="50.0" y="0.0" type="line"/>
      <point x="50.0" y="600.0" type="line"/>
      <point x="150.0" y="600.0" type="line"/>
      <point x="150.0" y="700.0" type="line"/>
      <point x="450.0" y="700.0" type="line"/>
      <point x="450.0" y="600.0" type="line"/>
      <point x="550.0" y="600.0" type="line"/>
      <point x="550.0" y="0.0" type="line"/>
    </contour>
  </outline>
</glyph>
<glyph name="emphas-ar" format="2">
  <advance width="400"/>
  <unicode hex="055B"/>
  <outline>
    <contour>
      <point x="50.0" y="400.0" type="line"/>
      <point x="50.0" y="500.0" type="line"/>
      <point x="150.0" y="500.0" type="line"/>
      <point x="150.0" y="600.0" type="line"/>
      <point x="250.0" y="600.0" type="line"/>
      <point x="250.0" y="700.0" type="line"/>
      <point x="350.0" y="700.0" type="line"/>
      <point x="350.0" y="600.0" type="line"/>
      <point x="250.0" y="600.0" type="line"/>
      <point x="250.0" y="500.0" type="line"/>
      <point x="150.0" y="500.0" type="line"/>
      <point x="150.0" y="400.0" type="line"/>
    </contour>
  </outline>
</glyph>
<glyph name="exclam-ar" format="2">
  <advance width="550"/>
  <unicode hex="055C"/>
  <outline>
    <contour>
      <point x="100.0" y="400.0" type="line"/>
      <point x="100.0" y="500.0" type="line"/>
      <point x="200.0" y="500.0" type="line"/>
      <point x="200.0" y="600.0" type="line"/>
      <point x="400.0" y="600.0" type="line"/>
      <point x="400.0" y="700.0" type="line"/>
      <point x="500.0" y="700.0" type="line"/>
      <point x="500.0" y="600.0" type="line"/>
      <point x="400.0" y="600.0" type="line"/>
      <point x="400.0" y="500.0" type="line"/>
      <point x="200.0" y="500.0" type="line"/>
      <point x="200.0" y="400.0" type="line"/>
    </contour>
  </outline>
</glyph>
<glyph name="uni05E0" format="2">
  <advance width="400"/>
  <unicode hex="05E0"/>
  <outline>
    <contour>
      <point x="50.0" y="0.0" type="line"/>
      <point x="50.0" y="100.0" type="line"/>
      <point x="250.0" y="100.0" type="line"/>
      <point x="250.0" y="500.0" type="line"/>
      <point x="50.0" y="500.0" type="line"/>
      <point x="50.0" y="600.0" type="line"/>
      <point x="250.0" y="600.0" type="line"/>
      <point x="250.0" y="500.0" type="line"/>
      <point x="350.0" y="500.0" type="line"/>
      <point x="350.0" y="0.0" type="line"/>
    </contour>
  </outline>
</glyph>
<glyph name="uni1C9D" format="2">
  <advance width="600"/>
  <unicode hex="1C9D"/>
  <outline>
    <contour>
      <point x="350.0" y="0.0" type="line"/>
      <point x="350.0" y="100.0" type="line"/>
      <point x="450.0" y="100.0" type="line"/>
      <point x="450.0" y="600.0" type="line"/>
      <point x="350.0" y="600.0" type="line"/>
      <point x="350.0" y="300.0" type="line"/>
      <point x="250.0" y="300.0" type="line"/>
      <point x="250.0" y="600.0" type="line"/>
      <point x="150.0" y="600.0" type="line"/>
      <point x="150.0" y="100.0" type="line"/>
      <point x="250.0" y="100.0" type="line"/>
      <point x="250.0" y="0.0" type="line"/>
      <point x="150.0" y="0.0" type="line"/>
      <point x="150.0" y="100.0" type="line"/>
      <point x="50.0" y="100.0" type="line"/>
      <point x="50.0" y="600.0" type="line"/>
      <point x="150.0" y="600.0" type="line"/>
      <point x="150.0" y="700.0" type="line"/>
      <point x="250.0" y="700.0" type="line"/>
      <point x="250.0" y="600.0" type="line"/>
      <point x="350.0" y="600.0" type="line"/>
      <point x="350.0" y="700.0" type="line"/>
      <point x="450.0" y="700.0" type="line"/>
      <point x="450.0" y="600.0" type="line"/>
      <point x="550.0" y="600.0" type="line"/>
      <point x="550.0" y="100.0" type="line"/>
      <point x="450.0" y="100.0" type="line"/>
      <point x="450.0" y="0.0" type="line"/>
    </contour>
  </outline>
</glyph>
<glyph name="Nmod" format="2">
  <advance width="500"/>
  <unicode hex="1D3A"/>
  <outline>
    <contour>
      <point x="350.0" y="200.0" type="line"/>
      <point x="350.0" y="400.0" type="line"/>
      <point x="250.0" y="400.0" type="line"/>
      <point x="250.0" y="500.0" type="line"/>
      <point x="150.0" y="500.0" type="line"/>
      <point x="150.0" y="200.0" type="line"/>
      <point x="50.0" y="200.0" type="line"/>
      <point x="50.0" y="700.0" type="line"/>
      <point x="150.0" y="700.0" type="line"/>
      <point x="150.0" y="600.0" type="line"/>
      <point x="250.0" y="600.0" type="line"/>
      <point x="250.0" y="500.0" type="line"/>
      <point x="350.0" y="500.0" type="line"/>
      <point x="350.0" y="700.0" type="line"/>
      <point x="450.0" y="700.0" type="line"/>
      <point x="450.0" y="200.0" type="line"/>
    </contour>
  </outline>
</glyph>
<glyph name="perthousand" format="2">
  <advance width="900"/>
  <unicode hex="2030"/>
  <outline>
    <contour>
      <point x="650.0" y="200.0" type="line"/>
      <point x="850.0" y="200.0" type="line"/>
      <point x="850.0" y="0.0" type="line"/>
      <point x="650.0" y="0.0" type="line"/>
    </contour>
    <component base="percent"/>
  </outline>
</glyph>
<glyph name="uni207B" format="2">
  <advance width="400"/>
  <unicode hex="207B"/>
  <outline>
    <contour>
      <point x="50.0" y="400.0" type="line"/>
      <point x="50.0" y="500.0" type="line"/>
      <point x="350.0" y="500.0" type="line"/>
      <point x="350.0" y="400.0" type="line"/>
    </contour>
  </outline>
</glyph>
<glyph name="uni2D08" format="2">
  <advance width="600"/>
  <unicode hex="2D08"/>
  <outline>
    <contour>
      <point x="450.0" y="0.0" type="line"/>
      <point x="450.0" y="400.0" type="line"/>
      <point x="250.0" y="400.0" type="line"/>
      <point x="250.0" y="300.0" type="line"/>
      <point x="150.0" y="300.0" type="line"/>
      <point x="150.0" y="200.0" type="line"/>
      <point x="50.0" y="200.0" type="line"/>
      <point x="50.0" y="500.0" type="line"/>
      <point x="150.0" y="500.0" type="line"/>
      <point x="150.0" y="400.0" type="line"/>
      <point x="250.0" y="400.0" type="line"/>
      <point x="250.0" y="500.0" type="line"/>
      <point x="450.0" y="500.0" type="line"/>
      <point x="450.0" y="400.0" type="line"/>
      <point x="550.0" y="400.0" type="line"/>
      <point x="550.0" y="0.0" type="line"/>
    </contour>
  </outline>
</glyph>
<glyph name="uni2D0A" format="2">
  <advance width="600"/>
  <unicode hex="2D0A"/>
  <outline>
    <contour>
      <point x="550.0" y="0.0" type="line"/>
      <point x="350.0" y="0.0" type="line"/>
      <point x="350.0" y="100.0" type="line"/>
      <point x="250.0" y="100.0" type="line"/>
      <point x="250.0" y="400.0" type="line"/>
      <point x="150.0" y="400.0" type="line"/>
      <point x="150.0" y="0.0" type="line"/>
      <point x="50.0" y="0.0" type="line"/>
      <point x="50.0" y="500.0" type="line"/>
      <point x="250.0" y="500.0" type="line"/>
      <point x="250.0" y="400.0" type="line"/>
      <point x="350.0" y="400.0" type="line"/>
      <point x="350.0" y="500.0" type="line"/>
      <point x="450.0" y="500.0" type="line"/>
      <point x="450.0" y="400.0" type="line"/>
      <point x="550.0" y="400.0" type="line"/>
    </contour>
    <contour>
      <point x="450.0" y="100.0" type="line"/>
      <point x="450.0" y="400.0" type="line"/>
      <point x="350.0" y="400.0" type="line"/>
      <point x="350.0" y="100.0" type="line"/>
    </contour>
  </outline>
</glyph>
<glyph name="Saltillo" format="2">
  <advance width="200"/>
  <unicode hex="A78B"/>
  <outline>
    <contour>
      <point x="50.0" y="300.0" type="line"/>
      <point x="50.0" y="700.0" type="line"/>
      <point x="150.0" y="700.0" type="line"/>
      <point x="150.0" y="300.0" type="line"/>
    </contour>
  </outline>
</glyph>
<glyph name="men_ech-ar" format="2">
  <advance width="1100"/>
  <unicode hex="FB14"/>
  <outline>
    <contour>
      <point x="650.0" y="700.0" type="line"/>
      <point x="650.0" y="500.0" type="line"/>
      <point x="1050.0" y="500.0" type="line"/>
      <point x="1050.0" y="400.0" type="line"/>
      <point x="650.0" y="400.0" type="line"/>
      <point x="650.0" y="100.0" type="line"/>
      <point x="850.0" y="100.0" type="line"/>
      <point x="850.0" y="200.0" type="line"/>
      <point x="950.0" y="200.0" type="line"/>
      <point x="950.0" y="300.0" type="line"/>
      <point x="1050.0" y="300.0" type="line"/>
      <point x="1050.0" y="0.0" type="line"/>
      <point x="950.0" y="0.0" type="line"/>
      <point x="950.0" y="100.0" type="line"/>
      <point x="850.0" y="100.0" type="line"/>
      <point x="850.0" y="0.0" type="line"/>
      <point x="650.0" y="0.0" type="line"/>
      <point x="650.0" y="100.0" type="line"/>
      <point x="550.0" y="100.0" type="line"/>
      <point x="550.0" y="600.0" type="line"/>
      <point x="450.0" y="600.0" type="line"/>
      <point x="450.0" y="0.0" type="line"/>
      <point x="350.0" y="0.0" type="line"/>
      <point x="350.0" y="100.0" type="line"/>
      <point x="250.0" y="100.0" type="line"/>
      <point x="250.0" y="0.0" type="line"/>
      <point x="150.0" y="0.0" type="line"/>
      <point x="150.0" y="100.0" type="line"/>
      <point x="50.0" y="100.0" type="line"/>
      <point x="50.0" y="500.0" type="line"/>
      <point x="150.0" y="500.0" type="line"/>
      <point x="150.0" y="100.0" type="line"/>
      <point x="250.0" y="100.0" type="line"/>
      <point x="250.0" y="200.0" type="line"/>
      <point x="350.0" y="200.0" type="line"/>
      <point x="350.0" y="700.0" type="line"/>
    </contour>
  </outline>
</glyph>
<glyph name="i.sc" format="2">
  <advance width="400"/>
  <outline>
    <contour>
      <point x="50.0" y="0.0" type="line"/>
      <point x="50.0" y="100.0" type="line"/>
      <point x="150.0" y="100.0" type="line"/>
      <point x="150.0" y="400.0" type="line"/>
      <point x="50.0" y="400.0" type="line"/>
      <point x="50.0" y="500.0" type="line"/>
      <point x="350.0" y="500.0" type="line"/>
      <point x="350.0" y="400.0" type="line"/>
      <point x="250.0" y="400.0" type="line"/>
      <point x="250.0" y="100.0" type="line"/>
      <point x="350.0" y="100.0" type="line"/>
      <point x="350.0" y="0.0" type="line"/>
    </contour>
  </outline>
</glyph>
<glyph name="periodcentered.loclCAT.case" format="2">
  <outline>
    <contour>
      <point x="-250.0" y="300.0" type="line"/>
      <point x="-250.0" y="400.0" type="line"/>
      <point x="-150.0" y="400.0" type="line"/>
      <point x="-150.0" y="300.0" type="line"/>
    </contour>
  </outline>
</glyph>
<glyph name="uni021B.sc" format="2">
  <advance width="600"/>
  <outline>
    <contour>
      <point x="150.0" y="-200.0" type="line"/>
      <point x="150.0" y="-100.0" type="line"/>
      <point x="250.0" y="-100.0" type="line"/>
      <point x="250.0" y="400.0" type="line"/>
      <point x="50.0" y="400.0" type="line"/>
      <point x="50.0" y="500.0" type="line"/>
      <point x="550.0" y="500.0" type="line"/>
      <point x="550.0" y="400.0" type="line"/>
      <point x="350.0" y="400.0" type="line"/>
      <point x="350.0" y="-100.0" type="line"/>
      <point x="250.0" y="-100.0" type="line"/>
      <point x="250.0" y="-200.0" type="line"/>
    </contour>
  </outline>
</glyph>
